<svg width="63" height="63" viewBox="0 0 63 63" fill="none" xmlns="http://www.w3.org/2000/svg">
  <path
    d="M28 7H35V0H49V7H56V14H63V35H56V42H49V49H42V56H35V63H28V56H21V49H14V42H7V35H0V14H7V7H14V0H28V7Z"
    fill="black" />
  <path d="M28 14H35V7H49V14H56V35H49V42H42V49H35V56H28V49H21V42H14V35H7V14H14V7H28V14Z"
    fill="#5555FF" />
  <path
    d="M35 56H28V49H35V56ZM28 49H21V42H28V49ZM42 49H35V42H42V49ZM21 42H14V35H21V42ZM49 42H42V35H49V42ZM14 35H7V28H14V35ZM56 35H49V28H56V35Z"
    fill="#3737C3" />
  <path d="M28 35H21V28H14V14H21V21H28V35ZM49 28H42V35H35V21H42V14H49V28Z" fill="black" />
</svg>