<svg width="495" height="72" viewBox="0 0 495 72" fill="none" xmlns="http://www.w3.org/2000/svg"
  class="logo">
  <mask id="path-1-outside-1_3045_451" maskUnits="userSpaceOnUse" x="0" y="0" width="184"
    height="72" fill="black">
    <rect fill="white" width="184" height="72" />
    <path
      d="M8 8H16V40H8V8ZM40 8H48V40H40V8ZM16 40H24V56H16V40ZM32 40H40V56H32V40ZM24 56H32V64H24V56ZM64 8H88V16H64V8ZM56 16H64V56H56V16ZM88 16H96V56H88V16ZM64 56H88V64H64V56ZM104 8H128V16H120V56H128V64H104V56H112V16H104V8ZM136 8H168V16H144V56H168V64H136V8ZM168 16H176V56H168V16Z" />
  </mask>
  <path
    d="M8 8H16V40H8V8ZM40 8H48V40H40V8ZM16 40H24V56H16V40ZM32 40H40V56H32V40ZM24 56H32V64H24V56ZM64 8H88V16H64V8ZM56 16H64V56H56V16ZM88 16H96V56H88V16ZM64 56H88V64H64V56ZM104 8H128V16H120V56H128V64H104V56H112V16H104V8ZM136 8H168V16H144V56H168V64H136V8ZM168 16H176V56H168V16Z"
    fill="#5555FF" />
  <path
    d="M8 8V0H0V8H8ZM16 8H24V0H16V8ZM16 40V48H24V40H16ZM8 40H0V48H8V40ZM40 8V0H32V8H40ZM48 8H56V0H48V8ZM48 40V48H56V40H48ZM40 40H32V48H40V40ZM16 40V32H8V40H16ZM24 40H32V32H24V40ZM24 56V64H32V56H24ZM16 56H8V64H16V56ZM32 40V32H24V40H32ZM40 40H48V32H40V40ZM40 56V64H48V56H40ZM32 56H24V64H32V56ZM24 56V48H16V56H24ZM32 56H40V48H32V56ZM32 64V72H40V64H32ZM24 64H16V72H24V64ZM8 8V16H16V8V0H8V8ZM16 8H8V40H16H24V8H16ZM16 40V32H8V40V48H16V40ZM8 40H16V8H8H0V40H8ZM40 8V16H48V8V0H40V8ZM48 8H40V40H48H56V8H48ZM48 40V32H40V40V48H48V40ZM40 40H48V8H40H32V40H40ZM16 40V48H24V40V32H16V40ZM24 40H16V56H24H32V40H24ZM24 56V48H16V56V64H24V56ZM16 56H24V40H16H8V56H16ZM32 40V48H40V40V32H32V40ZM40 40H32V56H40H48V40H40ZM40 56V48H32V56V64H40V56ZM32 56H40V40H32H24V56H32ZM24 56V64H32V56V48H24V56ZM32 56H24V64H32H40V56H32ZM32 64V56H24V64V72H32V64ZM24 64H32V56H24H16V64H24ZM64 8V0H56V8H64ZM88 8H96V0H88V8ZM88 16V24H96V16H88ZM64 16H56V24H64V16ZM56 16V8H48V16H56ZM64 16H72V8H64V16ZM64 56V64H72V56H64ZM56 56H48V64H56V56ZM88 16V8H80V16H88ZM96 16H104V8H96V16ZM96 56V64H104V56H96ZM88 56H80V64H88V56ZM64 56V48H56V56H64ZM88 56H96V48H88V56ZM88 64V72H96V64H88ZM64 64H56V72H64V64ZM64 8V16H88V8V0H64V8ZM88 8H80V16H88H96V8H88ZM88 16V8H64V16V24H88V16ZM64 16H72V8H64H56V16H64ZM56 16V24H64V16V8H56V16ZM64 16H56V56H64H72V16H64ZM64 56V48H56V56V64H64V56ZM56 56H64V16H56H48V56H56ZM88 16V24H96V16V8H88V16ZM96 16H88V56H96H104V16H96ZM96 56V48H88V56V64H96V56ZM88 56H96V16H88H80V56H88ZM64 56V64H88V56V48H64V56ZM88 56H80V64H88H96V56H88ZM88 64V56H64V64V72H88V64ZM64 64H72V56H64H56V64H64ZM104 8V0H96V8H104ZM128 8H136V0H128V8ZM128 16V24H136V16H128ZM120 16V8H112V16H120ZM120 56H112V64H120V56ZM128 56H136V48H128V56ZM128 64V72H136V64H128ZM104 64H96V72H104V64ZM104 56V48H96V56H104ZM112 56V64H120V56H112ZM112 16H120V8H112V16ZM104 16H96V24H104V16ZM104 8V16H128V8V0H104V8ZM128 8H120V16H128H136V8H128ZM128 16V8H120V16V24H128V16ZM120 16H112V56H120H128V16H120ZM120 56V64H128V56V48H120V56ZM128 56H120V64H128H136V56H128ZM128 64V56H104V64V72H128V64ZM104 64H112V56H104H96V64H104ZM104 56V64H112V56V48H104V56ZM112 56H120V16H112H104V56H112ZM112 16V8H104V16V24H112V16ZM104 16H112V8H104H96V16H104ZM136 8V0H128V8H136ZM168 8H176V0H168V8ZM168 16V24H176V16H168ZM144 16V8H136V16H144ZM144 56H136V64H144V56ZM168 56H176V48H168V56ZM168 64V72H176V64H168ZM136 64H128V72H136V64ZM168 16V8H160V16H168ZM176 16H184V8H176V16ZM176 56V64H184V56H176ZM168 56H160V64H168V56ZM136 8V16H168V8V0H136V8ZM168 8H160V16H168H176V8H168ZM168 16V8H144V16V24H168V16ZM144 16H136V56H144H152V16H144ZM144 56V64H168V56V48H144V56ZM168 56H160V64H168H176V56H168ZM168 64V56H136V64V72H168V64ZM136 64H144V8H136H128V64H136ZM168 16V24H176V16V8H168V16ZM176 16H168V56H176H184V16H176ZM176 56V48H168V56V64H176V56ZM168 56H176V16H168H160V56H168Z"
    fill="black" mask="url(#path-1-outside-1_3045_451)" />
  <path
    d="M212 8H220V0H236V8H244V16H252V40H244V48H236V56H228V64H220V72H212V64H204V56H196V48H188V40H180V16H188V8H196V0H212V8Z"
    fill="black" />
  <path
    d="M212 16H220V8H236V16H244V40H236V48H228V56H220V64H212V56H204V48H196V40H188V16H196V8H212V16Z"
    fill="#5555FF" />
  <path
    d="M220 64H212V56H220V64ZM212 56H204V48H212V56ZM228 56H220V48H228V56ZM204 48H196V40H204V48ZM236 48H228V40H236V48ZM196 40H188V32H196V40ZM244 40H236V32H244V40Z"
    fill="#3737C3" />
  <path d="M212 40H204V32H196V16H204V24H212V40ZM236 32H228V40H220V24H228V16H236V32Z" fill="black" />
  <mask id="path-7-outside-2_3045_451" maskUnits="userSpaceOnUse" x="247" y="0" width="248"
    height="72" fill="black">
    <rect fill="white" x="247" width="248" height="72" />
    <path
      d="M255 8H263V24H287V8H295V64H287V32H263V64H255V8ZM303 8H343V16H311V24H327V32H311V56H343V64H303V8ZM359 8H383V16H359V8ZM351 16H359V24H383V16H391V64H383V32H359V64H351V16ZM399 8H431V16H407V24H431V32H407V64H399V8ZM431 16H439V24H431V16ZM431 32H439V64H431V32ZM447 8H487V16H471V64H463V16H447V8Z" />
  </mask>
  <path
    d="M255 8H263V24H287V8H295V64H287V32H263V64H255V8ZM303 8H343V16H311V24H327V32H311V56H343V64H303V8ZM359 8H383V16H359V8ZM351 16H359V24H383V16H391V64H383V32H359V64H351V16ZM399 8H431V16H407V24H431V32H407V64H399V8ZM431 16H439V24H431V16ZM431 32H439V64H431V32ZM447 8H487V16H471V64H463V16H447V8Z"
    fill="#5555FF" />
  <path
    d="M255 8V0H247V8H255ZM263 8H271V0H263V8ZM263 24H255V32H263V24ZM287 24V32H295V24H287ZM287 8V0H279V8H287ZM295 8H303V0H295V8ZM295 64V72H303V64H295ZM287 64H279V72H287V64ZM287 32H295V24H287V32ZM263 32V24H255V32H263ZM263 64V72H271V64H263ZM255 64H247V72H255V64ZM255 8V16H263V8V0H255V8ZM263 8H255V24H263H271V8H263ZM263 24V32H287V24V16H263V24ZM287 24H295V8H287H279V24H287ZM287 8V16H295V8V0H287V8ZM295 8H287V64H295H303V8H295ZM295 64V56H287V64V72H295V64ZM287 64H295V32H287H279V64H287ZM287 32V24H263V32V40H287V32ZM263 32H255V64H263H271V32H263ZM263 64V56H255V64V72H263V64ZM255 64H263V8H255H247V64H255ZM303 8V0H295V8H303ZM343 8H351V0H343V8ZM343 16V24H351V16H343ZM311 16V8H303V16H311ZM311 24H303V32H311V24ZM327 24H335V16H327V24ZM327 32V40H335V32H327ZM311 32V24H303V32H311ZM311 56H303V64H311V56ZM343 56H351V48H343V56ZM343 64V72H351V64H343ZM303 64H295V72H303V64ZM303 8V16H343V8V0H303V8ZM343 8H335V16H343H351V8H343ZM343 16V8H311V16V24H343V16ZM311 16H303V24H311H319V16H311ZM311 24V32H327V24V16H311V24ZM327 24H319V32H327H335V24H327ZM327 32V24H311V32V40H327V32ZM311 32H303V56H311H319V32H311ZM311 56V64H343V56V48H311V56ZM343 56H335V64H343H351V56H343ZM343 64V56H303V64V72H343V64ZM303 64H311V8H303H295V64H303ZM359 8V0H351V8H359ZM383 8H391V0H383V8ZM383 16V24H391V16H383ZM359 16H351V24H359V16ZM351 16V8H343V16H351ZM359 16H367V8H359V16ZM359 24H351V32H359V24ZM383 24V32H391V24H383ZM383 16V8H375V16H383ZM391 16H399V8H391V16ZM391 64V72H399V64H391ZM383 64H375V72H383V64ZM383 32H391V24H383V32ZM359 32V24H351V32H359ZM359 64V72H367V64H359ZM351 64H343V72H351V64ZM359 8V16H383V8V0H359V8ZM383 8H375V16H383H391V8H383ZM383 16V8H359V16V24H383V16ZM359 16H367V8H359H351V16H359ZM351 16V24H359V16V8H351V16ZM359 16H351V24H359H367V16H359ZM359 24V32H383V24V16H359V24ZM383 24H391V16H383H375V24H383ZM383 16V24H391V16V8H383V16ZM391 16H383V64H391H399V16H391ZM391 64V56H383V64V72H391V64ZM383 64H391V32H383H375V64H383ZM383 32V24H359V32V40H383V32ZM359 32H351V64H359H367V32H359ZM359 64V56H351V64V72H359V64ZM351 64H359V16H351H343V64H351ZM399 8V0H391V8H399ZM431 8H439V0H431V8ZM431 16V24H439V16H431ZM407 16V8H399V16H407ZM407 24H399V32H407V24ZM431 24H439V16H431V24ZM431 32V40H439V32H431ZM407 32V24H399V32H407ZM407 64V72H415V64H407ZM399 64H391V72H399V64ZM431 16V8H423V16H431ZM439 16H447V8H439V16ZM439 24V32H447V24H439ZM431 24H423V32H431V24ZM431 32V24H423V32H431ZM439 32H447V24H439V32ZM439 64V72H447V64H439ZM431 64H423V72H431V64ZM399 8V16H431V8V0H399V8ZM431 8H423V16H431H439V8H431ZM431 16V8H407V16V24H431V16ZM407 16H399V24H407H415V16H407ZM407 24V32H431V24V16H407V24ZM431 24H423V32H431H439V24H431ZM431 32V24H407V32V40H431V32ZM407 32H399V64H407H415V32H407ZM407 64V56H399V64V72H407V64ZM399 64H407V8H399H391V64H399ZM431 16V24H439V16V8H431V16ZM439 16H431V24H439H447V16H439ZM439 24V16H431V24V32H439V24ZM431 24H439V16H431H423V24H431ZM431 32V40H439V32V24H431V32ZM439 32H431V64H439H447V32H439ZM439 64V56H431V64V72H439V64ZM431 64H439V32H431H423V64H431ZM447 8V0H439V8H447ZM487 8H495V0H487V8ZM487 16V24H495V16H487ZM471 16V8H463V16H471ZM471 64V72H479V64H471ZM463 64H455V72H463V64ZM463 16H471V8H463V16ZM447 16H439V24H447V16ZM447 8V16H487V8V0H447V8ZM487 8H479V16H487H495V8H487ZM487 16V8H471V16V24H487V16ZM471 16H463V64H471H479V16H471ZM471 64V56H463V64V72H471V64ZM463 64H471V16H463H455V64H463ZM463 16V8H447V16V24H463V16ZM447 16H455V8H447H439V16H447Z"
    fill="black" mask="url(#path-7-outside-2_3045_451)" />
</svg>